<svg width="140" height="140" viewBox="0 0 140 140" fill="none" xmlns="http://www.w3.org/2000/svg">
<path d="M133.207 48.5866C132.693 48.3295 132.133 48.1762 131.56 48.1355C130.987 48.0947 130.411 48.1672 129.866 48.3489C129.321 48.5305 128.817 48.8178 128.383 49.1943C127.949 49.5708 127.593 50.0291 127.336 50.5431L124.925 55.3648C123.824 51.1469 122.233 47.0726 120.184 43.225C115.259 34.1925 108.01 26.6397 99.1867 21.3479C90.3638 16.056 80.2875 13.2172 69.9997 13.125C58.8389 13.1149 47.922 16.3898 38.6095 22.5415C29.2971 28.6931 22.0011 37.4494 17.631 47.719C17.1754 48.7865 17.1626 49.9913 17.5953 51.0682C18.028 52.1452 18.8708 53.0061 19.9383 53.4617C21.0058 53.9172 22.2106 53.93 23.2875 53.4973C24.3645 53.0646 25.2254 52.2218 25.681 51.1543C29.2313 42.8229 35.0588 35.6614 42.4947 30.4919C49.9306 25.3223 58.6735 22.3542 67.7198 21.9283C76.766 21.5024 85.7491 23.6358 93.6378 28.0838C101.527 32.5318 108.001 39.1141 112.319 47.075C114.177 50.4895 115.606 54.1211 116.572 57.887L112.468 53.7828C111.643 52.9858 110.538 52.5449 109.39 52.5548C108.243 52.5648 107.146 53.0249 106.335 53.8361C105.524 54.6472 105.064 55.7445 105.054 56.8916C105.044 58.0388 105.485 59.1439 106.282 59.969L119.403 73.0905C119.902 73.5611 120.503 73.9105 121.16 74.1118C121.816 74.3131 122.509 74.3608 123.187 74.2514C123.865 74.1419 124.508 73.8781 125.067 73.4804C125.627 73.0828 126.087 72.5618 126.413 71.9578L135.163 54.4578C135.42 53.9439 135.574 53.3843 135.615 52.811C135.655 52.2378 135.583 51.6621 135.401 51.1169C135.22 50.5716 134.932 50.0675 134.556 49.6334C134.179 49.1992 133.721 48.8435 133.207 48.5866V48.5866Z" fill="white"/>
<path d="M16.4002 65.8356C15.7947 65.9669 15.2269 66.2337 14.7395 66.6161C14.2521 66.9985 13.8578 67.4864 13.5862 68.0433L4.8362 85.5433C4.57915 86.0572 4.42585 86.6167 4.38506 87.1898C4.34427 87.763 4.41679 88.3386 4.59847 88.8837C4.78016 89.4288 5.06744 89.9328 5.44393 90.3669C5.82042 90.801 6.27873 91.1567 6.7927 91.4136C7.83394 91.9121 9.02807 91.9866 10.1232 91.6216C11.2184 91.2566 12.129 90.4806 12.6631 89.4571L15.0746 84.6354C16.1753 88.8533 17.7664 92.9277 19.8153 96.7752C24.027 104.455 29.9179 111.085 37.0487 116.171C44.1795 121.257 52.3664 124.668 60.9989 126.149C63.9744 126.636 66.9846 126.879 69.9996 126.875C81.1604 126.885 92.0774 123.61 101.39 117.459C110.702 111.307 117.998 102.551 122.368 92.2812C122.594 91.7526 122.713 91.1848 122.719 90.6101C122.725 90.0355 122.618 89.4653 122.404 88.932C122.19 88.3988 121.873 87.9129 121.471 87.5023C121.069 87.0916 120.59 86.7641 120.061 86.5386C119.532 86.313 118.965 86.1938 118.39 86.1876C117.815 86.1815 117.245 86.2887 116.712 86.5029C116.179 86.7172 115.693 87.0344 115.282 87.4364C114.871 87.8384 114.544 88.3174 114.318 88.8459C110.393 98.1038 103.666 105.899 95.0819 111.137C86.4981 116.376 76.4891 118.793 66.4607 118.05C56.4324 117.308 46.8887 113.442 39.1703 106.996C31.4519 100.551 25.9466 91.8493 23.4278 82.1141L27.5315 86.2183C27.9351 86.6362 28.4178 86.9695 28.9516 87.1988C29.4854 87.428 30.0595 87.5487 30.6404 87.5538C31.2213 87.5588 31.7974 87.4481 32.3351 87.2282C32.8727 87.0082 33.3612 86.6833 33.772 86.2725C34.1828 85.8618 34.5076 85.3733 34.7276 84.8356C34.9476 84.2979 35.0583 83.7218 35.0532 83.1409C35.0482 82.56 34.9275 81.9859 34.6982 81.4522C34.4689 80.9184 34.1356 80.4356 33.7178 80.0321L20.584 66.9001C20.0164 66.4112 19.3432 66.0607 18.6172 65.876C17.8913 65.6913 17.1324 65.6775 16.4002 65.8356V65.8356Z" fill="white"/>
</svg>
